<svg xmlns="http://www.w3.org/2000/svg" viewBox="0 0 64 64">
  <defs>
    <linearGradient id="bg" x1="0%" y1="0%" x2="100%" y2="100%">
      <stop offset="0%" stop-color="#4f46e5"/>
      <stop offset="100%" stop-color="#6366f1"/>
    </linearGradient>
    <linearGradient id="doc" x1="0%" y1="0%" x2="0%" y2="100%">
      <stop offset="0%" stop-color="#ffffff"/>
      <stop offset="100%" stop-color="#e0e7ff"/>
    </linearGradient>
  </defs>
  <!-- Rounded background -->
  <rect x="2" y="2" width="60" height="60" rx="14" fill="url(#bg)"/>
  <!-- Document body -->
  <rect x="16" y="10" width="28" height="36" rx="3" fill="url(#doc)" opacity="0.95"/>
  <!-- Folded corner -->
  <path d="M36 10 L44 18 L36 18 Z" fill="#c7d2fe"/>
  <!-- Text lines on document -->
  <rect x="21" y="22" width="18" height="2.5" rx="1" fill="#6366f1" opacity="0.5"/>
  <rect x="21" y="28" width="14" height="2.5" rx="1" fill="#6366f1" opacity="0.5"/>
  <rect x="21" y="34" width="16" height="2.5" rx="1" fill="#6366f1" opacity="0.5"/>
  <rect x="21" y="40" width="10" height="2.5" rx="1" fill="#6366f1" opacity="0.5"/>
  <!-- Shield badge (bottom-right) -->
  <g transform="translate(36,36)">
    <path d="M10 2 L18 5.5 V11 C18 15.5 14 18.5 10 20 C6 18.5 2 15.5 2 11 V5.5 Z" fill="#22c55e" stroke="#16a34a" stroke-width="0.8"/>
    <polyline points="6.5,11 9,13.5 14,8.5" fill="none" stroke="#ffffff" stroke-width="2" stroke-linecap="round" stroke-linejoin="round"/>
  </g>
</svg>
